<svg width="251" height="154" viewBox="0 0 251 154" fill="none" xmlns="http://www.w3.org/2000/svg">
<path fill-rule="evenodd" clip-rule="evenodd" d="M18 151H251V153H18V151ZM0 151H13V153H0V151Z" fill="#CCCCCC"/>
<path fill-rule="evenodd" clip-rule="evenodd" d="M152 133V141.165H102V133H28V141.165C28 146.685 31.405 152.992 41.647 153L210.553 152.709C228.179 152.723 226.377 133 226 133H152Z" fill="#DFDFDF"/>
<path fill-rule="evenodd" clip-rule="evenodd" d="M153.303 133.42L129.025 133.431L153.303 133.449V133.42Z" fill="#F7D032"/>
<path fill-rule="evenodd" clip-rule="evenodd" d="M58.513 132.71H198.117V34.572L58.513 34.969V132.71Z" fill="white"/>
<path fill-rule="evenodd" clip-rule="evenodd" d="M30 147C30.735 149.575 35.553 153.276 43.283 153.276L211 153C217.737 153 223.34 149.628 224 147H30Z" fill="#BBBBBB"/>
<path d="M198 132H59" stroke="#CCCCCC" stroke-width="2" stroke-linecap="round" stroke-linejoin="round"/>
<path d="M225 134V141.285C225 145.61 220.753 152 211.607 152H46.489" stroke="#999999" stroke-width="2" stroke-linecap="round" stroke-linejoin="round"/>
<path d="M45 97V28C45 26.4087 45.6321 24.8826 46.7574 23.7574C47.8826 22.6321 49.4087 22 51 22H206C207.591 22 209.117 22.6321 210.243 23.7574C211.368 24.8826 212 26.4087 212 28V127" stroke="#CCCCCC" stroke-width="2" stroke-linecap="round" stroke-linejoin="round"/>
<path d="M198 132.492V37.3669C198 35.7679 196.603 34.9999 195 34.9999L82.65 34.8899L68.933 34.9839L60.917 34.9999C59.876 34.9999 59.317 35.5239 59.314 36.5669" stroke="#CCCCCC" stroke-width="2" stroke-linecap="round" stroke-linejoin="round"/>
<path d="M93.342 83.1118C93.217 92.0828 96.415 100.785 102.301 107.395C105.427 110.907 109.238 113.741 113.501 115.724C123.326 120.304 134.232 119.863 143.426 115.453C150.751 111.94 156.99 105.907 160.728 97.8898C163.308 92.3568 164.398 86.5188 164.164 80.8448C163.882 74.0458 161.696 67.4828 157.889 61.9628C154.399 56.8909 149.614 52.8464 144.032 50.2498C139.666 48.208 134.919 47.1055 130.1 47.0138C124.47 46.9068 118.9 48.1738 113.857 50.6418M113.857 50.6418C106.64 54.1718 100.501 60.1568 96.806 68.0818L113.857 50.6418Z" stroke="#CCCCCC" stroke-width="2" stroke-linecap="round"/>
<path d="M162.369 44.033L153.083 54.716" stroke="#CCCCCC" stroke-width="2" stroke-linecap="square"/>
<path fill-rule="evenodd" clip-rule="evenodd" d="M177.11 39.1939L172.848 44.0959C170.728 46.5359 166.508 46.3369 163.425 43.6579C160.342 40.9779 159.559 36.8269 161.679 34.3879L176.167 17.7209L189.585 2.2849C191.703 -0.151097 195.924 0.0459032 199.007 2.7249C202.089 5.4049 202.872 9.5579 200.754 11.9939" fill="#E6E6E6"/>
<path d="M161.755 35.0398C159.635 37.4778 160.098 41.3518 162.787 43.6888C165.476 46.0258 169.376 45.9458 171.497 43.5068L185.984 26.8408L199.402 11.4048" stroke="#CCCCCC" stroke-width="2" stroke-linecap="round"/>
<path fill-rule="evenodd" clip-rule="evenodd" d="M126.321 96.605H131.235V101.741H126.321V96.605V96.605ZM121.012 68.247C123.021 66.082 125.778 65 129.284 65C132.527 65 135.124 65.926 137.074 67.778C139.024 69.63 140 71.996 140 74.877C140 76.621 139.642 78.037 138.926 79.123C138.21 80.21 136.766 81.807 134.593 83.913C133.013 85.444 131.988 86.741 131.519 87.803C131.049 88.864 130.815 90.433 130.815 92.506H126.42C126.42 90.152 126.7 88.256 127.26 86.815C127.819 85.375 129.045 83.725 130.938 81.865L132.914 79.914C133.47 79.3986 133.952 78.8083 134.346 78.16C135.004 77.09 135.333 75.98 135.333 74.827C135.333 73.214 134.852 71.815 133.889 70.63C132.926 69.444 131.333 68.852 129.111 68.852C126.362 68.852 124.461 69.872 123.407 71.914C122.815 73.049 122.477 74.687 122.395 76.827H118C118 73.272 119.004 70.412 121.012 68.247Z" fill="#CCCCCC"/>
</svg>
